# xmcd CD database file
#
# Track frame offsets:
#	150
#	24224
#	42481
#	70038
#	82493
#
# Disc length: 1495 seconds
#
# Revision: 0
# Processed by: cddbd v1.5.1PL0 Copyright (c) Steve Scherf et al.
# Submitted via: CDex 1.51
#
DISCID=3c05d505
DTITLE=TwoKeysDisc - Alterations
DYEAR=1900
DGENRE=ゲーム
TTITLE0=LAMENT
TTITLE1=空より近い夢
TTITLE2=砂の風
TTITLE3=抱きしめて 愛しく 美しく
TTITLE4=SNOW
EXTD=
EXTT0=
EXTT1=
EXTT2=
EXTT3=
EXTT4=
PLAYORDER=
